  0
SECTION
  2
HEADER
  9
$ACADVER
  1
AC1009
  0
ENDSEC
  0
SECTION
  2
TABLES
  0
TABLE
  2
LAYER
  70
1
  0
LAYER
  2
Layer_0
  70
0
  62
7
  6
CONTINUOUS
  0
ENDTAB
  0
ENDSEC
  0
SECTION
  2
ENTITIES
  0
CIRCLE
  5
90
  8
Layer_0
  62
7
  10
906.91003
  20
797.1427
  30
0
  40
14.287499
  0
CIRCLE
  5
90
  8
Layer_0
  62
7
  10
906.91003
  20
959.6427
  30
0
  40
14.287499
  0
CIRCLE
  5
90
  8
Layer_0
  62
7
  10
825.69788
  20
937.89368
  30
0
  40
14.287499
  0
CIRCLE
  5
90
  8
Layer_0
  62
7
  10
744.41003
  20
797.1427
  30
0
  40
14.287499
  0
CIRCLE
  5
90
  8
Layer_0
  62
7
  10
766.15912
  20
878.35486
  30
0
  40
14.287499
  0
POLYLINE
  5
90
  8
Layer_0
  62
7
  70
1
  66
1
  10
0
  20
0
  30
0
  0
VERTEX
  5
90
  8
Layer_0
  10
960.96716
  20
1001.3528
  0
VERTEX
  5
91
  8
Layer_0
  10
960.96716
  20
772.75284
  0
VERTEX
  5
92
  8
Layer_0
  10
723.01996
  20
772.75284
  0
VERTEX
  5
93
  8
Layer_0
  10
723.01996
  20
904.83286
  42
-0.19509809
  0
SEQEND
  0
CIRCLE
  5
95
  8
Layer_0
  62
7
  10
1288.5994
  20
953.33105
  30
0
  40
2.5527
  0
CIRCLE
  5
95
  8
Layer_0
  62
7
  10
1235.6072
  20
958.32703
  30
0
  40
2.5527
  0
CIRCLE
  5
95
  8
Layer_0
  62
7
  10
1210.2073
  20
932.927
  30
0
  40
2.5527
  0
CIRCLE
  5
95
  8
Layer_0
  62
7
  10
1235.6072
  20
907.52698
  30
0
  40
2.5527
  0
CIRCLE
  5
95
  8
Layer_0
  62
7
  10
1275.0073
  20
876.58691
  30
0
  40
2.5527
  0
CIRCLE
  5
95
  8
Layer_0
  62
7
  10
1261.0073
  20
932.927
  30
0
  40
2.5527
  0
CIRCLE
  5
95
  8
Layer_0
  62
7
  10
1010.3874
  20
871.32556
  30
0
  40
2.54
  0
CIRCLE
  5
95
  8
Layer_0
  62
7
  10
1034.2634
  20
829.97107
  30
0
  40
2.54
  0
CIRCLE
  5
95
  8
Layer_0
  62
7
  10
998.44934
  20
850.64832
  30
0
  40
2.54
  0
CIRCLE
  5
95
  8
Layer_0
  62
7
  10
1235.6072
  20
932.927
  30
0
  40
14.287499
  0
CIRCLE
  5
95
  8
Layer_0
  62
7
  10
1241.9944
  20
989.90808
  30
0
  40
2.5527
  0
CIRCLE
  5
95
  8
Layer_0
  62
7
  10
1010.3874
  20
829.97107
  30
0
  40
2.54
  0
CIRCLE
  5
95
  8
Layer_0
  62
7
  10
1046.2014
  20
850.64832
  30
0
  40
2.54
  0
CIRCLE
  5
95
  8
Layer_0
  62
7
  10
1034.2634
  20
871.32556
  30
0
  40
2.54
  0
CIRCLE
  5
95
  8
Layer_0
  62
7
  10
1314.4072
  20
820.24683
  30
0
  40
14.287499
  0
CIRCLE
  5
95
  8
Layer_0
  62
7
  10
1253.5677
  20
914.96649
  30
0
  40
2.5527
  0
CIRCLE
  5
95
  8
Layer_0
  62
7
  10
1217.6467
  20
914.96649
  30
0
  40
2.5527
  0
CIRCLE
  5
95
  8
Layer_0
  62
7
  10
1217.6467
  20
950.88751
  30
0
  40
2.5527
  0
CIRCLE
  5
95
  8
Layer_0
  62
7
  10
1253.5677
  20
950.88751
  30
0
  40
2.5527
  0
CIRCLE
  5
95
  8
Layer_0
  62
7
  10
1145.2283
  20
835.86365
  30
0
  40
2.5527
  0
POLYLINE
  5
95
  8
Layer_0
  62
7
  70
1
  66
1
  10
0
  20
0
  30
0
  0
VERTEX
  5
95
  8
Layer_0
  10
1292.298
  20
967.17563
  42
-0.014808343
  0
VERTEX
  5
96
  8
Layer_0
  10
1269.4946
  20
986.79984
  42
0.40104224
  0
VERTEX
  5
97
  8
Layer_0
  10
1199.3115
  20
985.21417
  0
VERTEX
  5
98
  8
Layer_0
  10
1131.1268
  20
917.02951
  42
-0.074333148
  0
VERTEX
  5
99
  8
Layer_0
  10
1093.0891
  20
888.88544
  42
0.00060022514
  0
VERTEX
  5
9a
  8
Layer_0
  10
1092.5701
  20
888.6087
  42
-0.12739386
  0
VERTEX
  5
9b
  8
Layer_0
  10
1025.6965
  20
879.40738
  42
0.29042059
  0
VERTEX
  5
9c
  8
Layer_0
  10
997.74472
  20
865.95322
  42
0.29042079
  0
VERTEX
  5
9d
  8
Layer_0
  10
998.005
  20
834.93304
  42
0.29042115
  0
VERTEX
  5
9e
  8
Layer_0
  10
1026.1786
  20
821.9498
  42
-0.033087375
  0
VERTEX
  5
9f
  8
Layer_0
  10
1042.9307
  20
823.07919
  0
VERTEX
  5
a0
  8
Layer_0
  10
1115.4096
  20
823.16364
  0
VERTEX
  5
a1
  8
Layer_0
  10
1152.8483
  20
823.16364
  42
-0.41421834
  0
VERTEX
  5
a2
  8
Layer_0
  10
1157.9283
  20
818.08365
  42
0.014968675
  0
VERTEX
  5
a3
  8
Layer_0
  10
1157.9283
  20
787.21664
  0
VERTEX
  5
a4
  8
Layer_0
  10
1157.9283
  20
779.47226
  42
0.062564777
  0
VERTEX
  5
a5
  8
Layer_0
  10
1158.4019
  20
775.70282
  42
0.029737049
  0
VERTEX
  5
a6
  8
Layer_0
  10
1165.2355
  20
714.79681
  42
0.36491757
  0
VERTEX
  5
a7
  8
Layer_0
  10
1185.2584
  20
697.93839
  0
VERTEX
  5
a8
  8
Layer_0
  10
1196.7081
  20
697.93839
  42
0.21234868
  0
VERTEX
  5
a9
  8
Layer_0
  10
1211.7979
  20
704.64966
  42
0.21234825
  0
VERTEX
  5
aa
  8
Layer_0
  10
1216.9201
  20
720.35028
  0
VERTEX
  5
ab
  8
Layer_0
  10
1210.1991
  20
785.28922
  42
-0.26365524
  0
VERTEX
  5
ac
  8
Layer_0
  10
1222.247
  20
812.82443
  42
-0.26365583
  0
VERTEX
  5
ad
  8
Layer_0
  10
1252.0598
  20
816.63696
  0
VERTEX
  5
ae
  8
Layer_0
  10
1304.2008
  20
795.30249
  42
0.1340726
  0
VERTEX
  5
af
  8
Layer_0
  10
1318.2943
  20
793.57693
  42
0.41336818
  0
VERTEX
  5
b0
  8
Layer_0
  10
1341.0883
  20
816.43686
  42
0.071040625
  0
VERTEX
  5
b1
  8
Layer_0
  10
1341.0883
  20
824.05685
  0
VERTEX
  5
b2
  8
Layer_0
  10
1341.0883
  20
846.965
  42
0.2008411
  0
VERTEX
  5
b3
  8
Layer_0
  10
1334.2723
  20
863.24899
  42
-0.20084228
  0
VERTEX
  5
b4
  8
Layer_0
  10
1301.7072
  20
941.05017
  0
VERTEX
  5
b5
  8
Layer_0
  10
1301.7072
  20
947.44101
  42
0.22619538
  0
SEQEND
  0
POLYLINE
  5
b7
  8
Layer_0
  62
7
  70
1
  66
1
  10
0
  20
0
  30
0
  0
VERTEX
  5
b7
  8
Layer_0
  10
1180.7415
  20
710.6384
  0
VERTEX
  5
b8
  8
Layer_0
  10
1191.7401
  20
710.6384
  42
0.2679486
  0
VERTEX
  5
b9
  8
Layer_0
  10
1194.4897
  20
712.22589
  42
0.26795134
  0
VERTEX
  5
ba
  8
Layer_0
  10
1194.4897
  20
715.40088
  0
VERTEX
  5
bb
  8
Layer_0
  10
1188.9904
  20
724.92587
  42
0.2679486
  0
VERTEX
  5
bc
  8
Layer_0
  10
1186.2408
  20
726.5134
  42
0.2679486
  0
VERTEX
  5
bd
  8
Layer_0
  10
1183.4911
  20
724.92587
  0
VERTEX
  5
be
  8
Layer_0
  10
1177.9919
  20
715.40088
  42
0.26795134
  0
VERTEX
  5
bf
  8
Layer_0
  10
1177.9919
  20
712.22589
  42
0.2679486
  0
SEQEND
  0
POLYLINE
  5
c1
  8
Layer_0
  62
7
  70
1
  66
1
  10
0
  20
0
  30
0
  0
VERTEX
  5
c1
  8
Layer_0
  10
1014.0765
  20
849.06076
  0
VERTEX
  5
c2
  8
Layer_0
  10
1019.5757
  20
858.58578
  42
-0.26795172
  0
VERTEX
  5
c3
  8
Layer_0
  10
1022.3254
  20
860.17328
  42
-0.26795172
  0
VERTEX
  5
c4
  8
Layer_0
  10
1025.075
  20
858.58578
  0
VERTEX
  5
c5
  8
Layer_0
  10
1030.5743
  20
849.06076
  42
-0.26794594
  0
VERTEX
  5
c6
  8
Layer_0
  10
1030.5743
  20
845.88577
  42
-0.2679486
  0
VERTEX
  5
c7
  8
Layer_0
  10
1027.8246
  20
844.29825
  0
VERTEX
  5
c8
  8
Layer_0
  10
1016.8261
  20
844.29825
  42
-0.26795172
  0
VERTEX
  5
c9
  8
Layer_0
  10
1014.0765
  20
845.88577
  42
-0.26794594
  0
SEQEND
  0
CIRCLE
  5
cb
  8
Layer_0
  62
7
  10
1016.5503
  20
559.82709
  30
0
  40
2.5527
  0
CIRCLE
  5
cb
  8
Layer_0
  62
7
  10
1069.5425
  20
554.83118
  30
0
  40
2.5527
  0
CIRCLE
  5
cb
  8
Layer_0
  62
7
  10
1094.9424
  20
580.2312
  30
0
  40
2.5527
  0
CIRCLE
  5
cb
  8
Layer_0
  62
7
  10
1069.5425
  20
605.63123
  30
0
  40
2.5527
  0
CIRCLE
  5
cb
  8
Layer_0
  62
7
  10
1030.1423
  20
636.57123
  30
0
  40
2.5527
  0
CIRCLE
  5
cb
  8
Layer_0
  62
7
  10
1044.1425
  20
580.2312
  30
0
  40
2.5527
  0
CIRCLE
  5
cb
  8
Layer_0
  62
7
  10
1294.7622
  20
641.8327
  30
0
  40
2.54
  0
CIRCLE
  5
cb
  8
Layer_0
  62
7
  10
1270.8862
  20
683.18713
  30
0
  40
2.54
  0
CIRCLE
  5
cb
  8
Layer_0
  62
7
  10
1306.7003
  20
662.50989
  30
0
  40
2.54
  0
CIRCLE
  5
cb
  8
Layer_0
  62
7
  10
1069.5425
  20
580.2312
  30
0
  40
14.287499
  0
CIRCLE
  5
cb
  8
Layer_0
  62
7
  10
1063.1553
  20
523.25006
  30
0
  40
2.5527
  0
CIRCLE
  5
cb
  8
Layer_0
  62
7
  10
1294.7622
  20
683.18713
  30
0
  40
2.54
  0
CIRCLE
  5
cb
  8
Layer_0
  62
7
  10
1258.9482
  20
662.50989
  30
0
  40
2.54
  0
CIRCLE
  5
cb
  8
Layer_0
  62
7
  10
1270.8862
  20
641.8327
  30
0
  40
2.54
  0
CIRCLE
  5
cb
  8
Layer_0
  62
7
  10
990.74243
  20
692.91132
  30
0
  40
14.287499
  0
CIRCLE
  5
cb
  8
Layer_0
  62
7
  10
1051.5819
  20
598.19165
  30
0
  40
2.5527
  0
CIRCLE
  5
cb
  8
Layer_0
  62
7
  10
1087.5029
  20
598.19165
  30
0
  40
2.5527
  0
CIRCLE
  5
cb
  8
Layer_0
  62
7
  10
1087.5029
  20
562.27069
  30
0
  40
2.5527
  0
CIRCLE
  5
cb
  8
Layer_0
  62
7
  10
1051.5819
  20
562.27069
  30
0
  40
2.5527
  0
CIRCLE
  5
cb
  8
Layer_0
  62
7
  10
1159.9213
  20
677.29456
  30
0
  40
2.5527
  0
POLYLINE
  5
cb
  8
Layer_0
  62
7
  70
1
  66
1
  10
0
  20
0
  30
0
  0
VERTEX
  5
cb
  8
Layer_0
  10
1012.8516
  20
545.98255
  42
-0.014808343
  0
VERTEX
  5
cc
  8
Layer_0
  10
1035.6551
  20
526.35834
  42
0.40104224
  0
VERTEX
  5
cd
  8
Layer_0
  10
1105.8382
  20
527.94401
  0
VERTEX
  5
ce
  8
Layer_0
  10
1174.0228
  20
596.12868
  42
-0.074333148
  0
VERTEX
  5
cf
  8
Layer_0
  10
1212.0605
  20
624.27275
  42
0.00060022514
  0
VERTEX
  5
d0
  8
Layer_0
  10
1212.5796
  20
624.54948
  42
-0.12739386
  0
VERTEX
  5
d1
  8
Layer_0
  10
1279.4531
  20
633.75084
  42
0.29042059
  0
VERTEX
  5
d2
  8
Layer_0
  10
1307.4049
  20
647.20499
  42
0.29042079
  0
VERTEX
  5
d3
  8
Layer_0
  10
1307.1447
  20
678.22516
  42
0.29042115
  0
VERTEX
  5
d4
  8
Layer_0
  10
1278.971
  20
691.2084
  42
-0.033087375
  0
VERTEX
  5
d5
  8
Layer_0
  10
1262.2189
  20
690.07901
  0
VERTEX
  5
d6
  8
Layer_0
  10
1189.74
  20
689.99455
  0
VERTEX
  5
d7
  8
Layer_0
  10
1152.3013
  20
689.99455
  42
-0.41421834
  0
VERTEX
  5
d8
  8
Layer_0
  10
1147.2213
  20
695.07454
  42
0.014968675
  0
VERTEX
  5
d9
  8
Layer_0
  10
1147.2213
  20
725.94156
  0
VERTEX
  5
da
  8
Layer_0
  10
1147.2213
  20
733.68593
  42
0.062564777
  0
VERTEX
  5
db
  8
Layer_0
  10
1146.7478
  20
737.45537
  42
0.029737049
  0
VERTEX
  5
dc
  8
Layer_0
  10
1139.9142
  20
798.36136
  42
0.36491757
  0
VERTEX
  5
dd
  8
Layer_0
  10
1119.8912
  20
815.21979
  0
VERTEX
  5
de
  8
Layer_0
  10
1108.4416
  20
815.21979
  42
0.21234868
  0
VERTEX
  5
df
  8
Layer_0
  10
1093.3517
  20
808.50851
  42
0.21234825
  0
VERTEX
  5
e0
  8
Layer_0
  10
1088.2295
  20
792.80789
  0
VERTEX
  5
e1
  8
Layer_0
  10
1094.9505
  20
727.86897
  42
-0.26365524
  0
VERTEX
  5
e2
  8
Layer_0
  10
1082.9026
  20
700.33377
  42
-0.26365583
  0
VERTEX
  5
e3
  8
Layer_0
  10
1053.0899
  20
696.52122
  0
VERTEX
  5
e4
  8
Layer_0
  10
1000.9489
  20
717.85568
  42
0.1340726
  0
VERTEX
  5
e5
  8
Layer_0
  10
986.85535
  20
719.58124
  42
0.41336818
  0
VERTEX
  5
e6
  8
Layer_0
  10
964.0614
  20
696.72131
  42
0.071040625
  0
VERTEX
  5
e7
  8
Layer_0
  10
964.06134
  20
689.10132
  0
VERTEX
  5
e8
  8
Layer_0
  10
964.0614
  20
666.19318
  42
0.2008411
  0
VERTEX
  5
e9
  8
Layer_0
  10
970.87732
  20
649.90918
  42
-0.20084228
  0
VERTEX
  5
ea
  8
Layer_0
  10
1003.4424
  20
572.108
  0
VERTEX
  5
eb
  8
Layer_0
  10
1003.4424
  20
565.71716
  42
0.22619538
  0
SEQEND
  0
POLYLINE
  5
ed
  8
Layer_0
  62
7
  70
1
  66
1
  10
0
  20
0
  30
0
  0
VERTEX
  5
ed
  8
Layer_0
  10
1124.4081
  20
802.51978
  0
VERTEX
  5
ee
  8
Layer_0
  10
1113.4096
  20
802.51978
  42
0.2679486
  0
VERTEX
  5
ef
  8
Layer_0
  10
1110.6599
  20
800.93228
  42
0.26795134
  0
VERTEX
  5
f0
  8
Layer_0
  10
1110.6599
  20
797.75729
  0
VERTEX
  5
f1
  8
Layer_0
  10
1116.1592
  20
788.2323
  42
0.2679486
  0
VERTEX
  5
f2
  8
Layer_0
  10
1118.9088
  20
786.64478
  42
0.2679486
  0
VERTEX
  5
f3
  8
Layer_0
  10
1121.6585
  20
788.2323
  0
VERTEX
  5
f4
  8
Layer_0
  10
1127.1577
  20
797.75729
  42
0.26795134
  0
VERTEX
  5
f5
  8
Layer_0
  10
1127.1577
  20
800.93228
  42
0.2679486
  0
SEQEND
  0
POLYLINE
  5
f7
  8
Layer_0
  62
7
  70
1
  66
1
  10
0
  20
0
  30
0
  0
VERTEX
  5
f7
  8
Layer_0
  10
1291.0732
  20
664.09743
  0
VERTEX
  5
f8
  8
Layer_0
  10
1285.5739
  20
654.57243
  42
-0.26795172
  0
VERTEX
  5
f9
  8
Layer_0
  10
1282.8243
  20
652.98492
  42
-0.26795172
  0
VERTEX
  5
fa
  8
Layer_0
  10
1280.0746
  20
654.57243
  0
VERTEX
  5
fb
  8
Layer_0
  10
1274.5754
  20
664.09743
  42
-0.26794594
  0
VERTEX
  5
fc
  8
Layer_0
  10
1274.5754
  20
667.27243
  42
-0.2679486
  0
VERTEX
  5
fd
  8
Layer_0
  10
1277.325
  20
668.85994
  0
VERTEX
  5
fe
  8
Layer_0
  10
1288.3235
  20
668.85994
  42
-0.26795172
  0
VERTEX
  5
ff
  8
Layer_0
  10
1291.0732
  20
667.27243
  42
-0.26794594
  0
SEQEND
  0
CIRCLE
  5
101
  8
Layer_0
  62
7
  10
900.57159
  20
714.9306
  30
0
  40
14.287499
  0
CIRCLE
  5
101
  8
Layer_0
  62
7
  10
900.57166
  20
552.4306
  30
0
  40
14.287499
  0
CIRCLE
  5
101
  8
Layer_0
  62
7
  10
819.35938
  20
574.17969
  30
0
  40
14.287499
  0
CIRCLE
  5
101
  8
Layer_0
  62
7
  10
738.07159
  20
714.9306
  30
0
  40
14.287499
  0
CIRCLE
  5
101
  8
Layer_0
  62
7
  10
759.82068
  20
633.71844
  30
0
  40
14.287499
  0
POLYLINE
  5
101
  8
Layer_0
  62
7
  70
1
  66
1
  10
0
  20
0
  30
0
  0
VERTEX
  5
101
  8
Layer_0
  10
954.62872
  20
510.72054
  0
VERTEX
  5
102
  8
Layer_0
  10
954.62869
  20
739.32051
  0
VERTEX
  5
103
  8
Layer_0
  10
716.6815
  20
739.32051
  0
VERTEX
  5
104
  8
Layer_0
  10
716.68152
  20
607.24049
  42
0.19509809
  0
SEQEND
  0
POLYLINE
  5
106
  8
Layer_0
  62
7
  70
1
  66
1
  10
0
  20
0
  30
0
  0
VERTEX
  5
106
  8
Layer_0
  10
698.87457
  20
1019.7696
  0
VERTEX
  5
107
  8
Layer_0
  10
1352.5508
  20
1019.7696
  0
VERTEX
  5
108
  8
Layer_0
  10
1352.5508
  20
498.54883
  0
VERTEX
  5
109
  8
Layer_0
  10
698.87457
  20
498.54883
  0
SEQEND
  0
ENDSEC
  0
EOF
