  0
SECTION
  2
HEADER
  9
$ACADVER
  1
AC1009
  0
ENDSEC
  0
SECTION
  2
TABLES
  0
TABLE
  2
LAYER
  70
2
  0
LAYER
  2
Layer_0
  70
0
  62
7
  6
CONTINUOUS
  0
LAYER
  2
Layer_1
  70
0
  62
5
  6
CONTINUOUS
  0
ENDTAB
  0
ENDSEC
  0
SECTION
  2
ENTITIES
  0
CIRCLE
  5
90
  8
Layer_0
  62
7
  10
1446.368
  20
1024.6016
  30
0
  40
14.2875
  0
CIRCLE
  5
90
  8
Layer_0
  62
7
  10
1448.521
  20
1271.3049
  30
0
  40
14.2875
  0
POLYLINE
  5
90
  8
Layer_0
  62
7
  66
1
  10
0
  20
0
  30
0
  0
VERTEX
  5
90
  8
Layer_0
  10
1423.122
  20
1271.5266
  0
VERTEX
  5
91
  8
Layer_0
  10
1420.9691
  20
1024.8233
  0
SEQEND
  0
POLYLINE
  5
93
  8
Layer_0
  62
7
  66
1
  10
0
  20
0
  30
0
  0
VERTEX
  5
93
  8
Layer_0
  10
1471.7671
  20
1024.3799
  0
VERTEX
  5
94
  8
Layer_0
  10
1473.92
  20
1271.0833
  0
SEQEND
  0
POLYLINE
  5
96
  8
Layer_0
  62
7
  66
1
  10
0
  20
0
  30
0
  0
VERTEX
  5
96
  8
Layer_0
  10
1420.9691
  20
1024.8233
  42
0.41421357
  0
VERTEX
  5
97
  8
Layer_0
  10
1446.1464
  20
999.20255
  42
0.41421324
  0
VERTEX
  5
98
  8
Layer_0
  10
1471.7671
  20
1024.3799
  0
SEQEND
  0
POLYLINE
  5
9a
  8
Layer_0
  62
7
  66
1
  10
0
  20
0
  30
0
  0
VERTEX
  5
9a
  8
Layer_0
  10
1473.92
  20
1271.0833
  42
0.41421357
  0
VERTEX
  5
9b
  8
Layer_0
  10
1448.7426
  20
1296.704
  42
0.41421325
  0
VERTEX
  5
9c
  8
Layer_0
  10
1423.1219
  20
1271.5266
  0
SEQEND
  0
CIRCLE
  5
9e
  8
Layer_0
  62
7
  10
1389.4597
  20
1011.0021
  30
0
  40
3.9751
  0
CIRCLE
  5
9e
  8
Layer_0
  62
7
  10
1387.1301
  20
1277.9459
  30
0
  40
3.9751
  0
POLYLINE
  5
9e
  8
Layer_0
  62
7
  70
1
  66
1
  10
0
  20
0
  30
0
  0
VERTEX
  5
9e
  8
Layer_0
  10
1402.1591
  20
1011.1129
  42
-0.41421229
  0
VERTEX
  5
9f
  8
Layer_0
  10
1389.5705
  20
998.30258
  42
-0.41421293
  0
VERTEX
  5
a0
  8
Layer_0
  10
1376.7601
  20
1010.8913
  0
VERTEX
  5
a1
  8
Layer_0
  10
1374.4305
  20
1277.8351
  42
-0.41421485
  0
VERTEX
  5
a2
  8
Layer_0
  10
1387.0192
  20
1290.6454
  42
-0.41421357
  0
VERTEX
  5
a3
  8
Layer_0
  10
1399.8295
  20
1278.0568
  0
SEQEND
  0
CIRCLE
  5
a5
  8
Layer_0
  62
7
  10
1545.373
  20
1019.6764
  30
0
  40
14.2875
  0
CIRCLE
  5
a5
  8
Layer_0
  62
7
  10
1503.2178
  20
1069.7483
  30
0
  40
3.96875
  0
CIRCLE
  5
a5
  8
Layer_0
  62
7
  10
1541.2063
  20
1258.4
  30
0
  40
14.2875
  0
POLYLINE
  5
a5
  8
Layer_0
  62
7
  70
1
  66
1
  10
0
  20
0
  30
0
  0
VERTEX
  5
a5
  8
Layer_0
  10
1516.0294
  20
1261.7599
  0
VERTEX
  5
a6
  8
Layer_0
  10
1490.6295
  20
1071.4283
  42
0.16065818
  0
VERTEX
  5
a7
  8
Layer_0
  10
1492.1001
  20
1063.6095
  0
VERTEX
  5
a8
  8
Layer_0
  10
1523.1376
  20
1007.3988
  42
0.34455759
  0
VERTEX
  5
a9
  8
Layer_0
  10
1551.9271
  20
995.13657
  42
0.34455724
  0
VERTEX
  5
aa
  8
Layer_0
  10
1570.7693
  20
1020.1198
  0
VERTEX
  5
ab
  8
Layer_0
  10
1566.6024
  20
1258.8434
  42
0.39239619
  0
VERTEX
  5
ac
  8
Layer_0
  10
1542.6686
  20
1283.758
  42
0.39239607
  0
SEQEND
  0
CIRCLE
  5
ae
  8
Layer_0
  62
7
  10
1435.5688
  20
743.4408
  30
0
  40
2.5527
  0
CIRCLE
  5
ae
  8
Layer_0
  62
7
  10
1393.929
  20
699.56152
  30
0
  40
2.5527
  0
CIRCLE
  5
ae
  8
Layer_0
  62
7
  10
1460.9026
  20
719.40002
  30
0
  40
2.5527
  0
CIRCLE
  5
ae
  8
Layer_0
  62
7
  10
1376.5505
  20
659.97723
  30
0
  40
2.5527
  0
CIRCLE
  5
ae
  8
Layer_0
  62
7
  10
1382.9005
  20
748.65015
  30
0
  40
2.5527
  0
CIRCLE
  5
ae
  8
Layer_0
  62
7
  10
1382.9005
  20
774.05017
  30
0
  40
2.5527
  0
CIRCLE
  5
ae
  8
Layer_0
  62
7
  10
1428.0925
  20
799.07935
  30
0
  40
14.2875
  0
CIRCLE
  5
ae
  8
Layer_0
  62
7
  10
1395.6006
  20
888.3501
  30
0
  40
14.2875
  0
CIRCLE
  5
ae
  8
Layer_0
  62
7
  10
1501.8201
  20
731.52032
  30
0
  40
14.2875
  0
CIRCLE
  5
ae
  8
Layer_0
  62
7
  10
1382.9005
  20
761.35016
  30
0
  40
2.5527
  0
CIRCLE
  5
ae
  8
Layer_0
  62
7
  10
1573.4005
  20
691.50012
  30
0
  40
2.5527
  0
CIRCLE
  5
ae
  8
Layer_0
  62
7
  10
1474.9756
  20
675.73871
  30
0
  40
2.5527
  0
CIRCLE
  5
ae
  8
Layer_0
  62
7
  10
1376.5505
  20
507.35016
  30
0
  40
2.5527
  0
CIRCLE
  5
ae
  8
Layer_0
  62
7
  10
1419.2627
  20
675.52075
  30
0
  40
2.5527
  0
CIRCLE
  5
ae
  8
Layer_0
  62
7
  10
1402.082
  20
733.52155
  30
0
  40
2.5527
  0
CIRCLE
  5
ae
  8
Layer_0
  62
7
  10
1579.7505
  20
507.35019
  30
0
  40
2.5527
  0
CIRCLE
  5
ae
  8
Layer_0
  62
7
  10
1452.7495
  20
685.43994
  30
0
  40
2.5527
  0
POLYLINE
  5
ae
  8
Layer_0
  62
7
  70
1
  66
1
  10
0
  20
0
  30
0
  0
VERTEX
  5
ae
  8
Layer_0
  10
1583.473
  20
742.46118
  42
-0.24544987
  0
VERTEX
  5
af
  8
Layer_0
  10
1425.8317
  20
898.05267
  42
0.36943079
  0
VERTEX
  5
b0
  8
Layer_0
  10
1390.6902
  20
919.71814
  42
0.36943068
  0
VERTEX
  5
b1
  8
Layer_0
  10
1363.8505
  20
888.35013
  0
VERTEX
  5
b2
  8
Layer_0
  10
1363.8505
  20
507.35017
  42
0.41421356
  0
VERTEX
  5
b3
  8
Layer_0
  10
1376.5505
  20
494.65016
  0
VERTEX
  5
b4
  8
Layer_0
  10
1579.7505
  20
494.65018
  42
0.41421356
  0
VERTEX
  5
b5
  8
Layer_0
  10
1592.4506
  20
507.3502
  0
VERTEX
  5
b6
  8
Layer_0
  10
1592.4505
  20
730.31894
  42
0.32953722
  0
SEQEND
  0
CIRCLE
  5
b8
  8
Layer_0
  62
7
  10
1527.5909
  20
1306.7679
  30
0
  40
3.8099999
  0
CIRCLE
  5
b8
  8
Layer_0
  62
7
  10
1502.4246
  20
1319.2114
  30
0
  40
2.5527
  0
CIRCLE
  5
b8
  8
Layer_0
  62
7
  10
1566.5825
  20
1319.2114
  30
0
  40
2.5527
  0
POLYLINE
  5
b8
  8
Layer_0
  62
7
  70
1
  66
1
  10
0
  20
0
  30
0
  0
VERTEX
  5
b8
  8
Layer_0
  10
1534.7725
  20
1293.6862
  42
-0.30927138
  0
VERTEX
  5
b9
  8
Layer_0
  10
1518.0032
  20
1295.3318
  0
VERTEX
  5
ba
  8
Layer_0
  10
1492.8996
  20
1316.378
  0
VERTEX
  5
bb
  8
Layer_0
  10
1492.8996
  20
1374.7764
  0
VERTEX
  5
bc
  8
Layer_0
  10
1576.1075
  20
1374.7765
  0
VERTEX
  5
bd
  8
Layer_0
  10
1576.1075
  20
1316.378
  0
SEQEND
  0
CIRCLE
  5
bf
  8
Layer_0
  62
7
  10
1505.9814
  20
897.64996
  30
0
  40
2.5527
  0
CIRCLE
  5
bf
  8
Layer_0
  62
7
  10
1570.1393
  20
897.64996
  30
0
  40
2.5527
  0
CIRCLE
  5
bf
  8
Layer_0
  62
7
  10
1479.2729
  20
859.55255
  30
0
  40
3.96875
  0
CIRCLE
  5
bf
  8
Layer_0
  62
7
  10
1546.4205
  20
783.35254
  30
0
  40
3.96875
  0
CIRCLE
  5
bf
  8
Layer_0
  62
7
  10
1531.5817
  20
848.60852
  30
0
  40
25.4
  0
POLYLINE
  5
bf
  8
Layer_0
  62
7
  70
1
  66
1
  10
0
  20
0
  30
0
  0
VERTEX
  5
bf
  8
Layer_0
  10
1442.6611
  20
874.68744
  0
VERTEX
  5
c0
  8
Layer_0
  10
1533.319
  20
771.80743
  42
0.27462233
  0
VERTEX
  5
c1
  8
Layer_0
  10
1550.2925
  20
766.32477
  42
0.27462556
  0
VERTEX
  5
c2
  8
Layer_0
  10
1563.2261
  20
778.60822
  0
VERTEX
  5
c3
  8
Layer_0
  10
1590.9556
  20
876.83282
  42
0.068891511
  0
VERTEX
  5
c4
  8
Layer_0
  10
1591.493
  20
880.7146
  0
VERTEX
  5
c5
  8
Layer_0
  10
1591.493
  20
953.21503
  0
VERTEX
  5
c6
  8
Layer_0
  10
1559.743
  20
953.21503
  0
VERTEX
  5
c7
  8
Layer_0
  10
1559.743
  20
927.815
  42
-0.41421356
  0
VERTEX
  5
c8
  8
Layer_0
  10
1545.4556
  20
913.52753
  0
VERTEX
  5
c9
  8
Layer_0
  10
1481.9556
  20
913.52753
  42
-0.41421356
  0
VERTEX
  5
ca
  8
Layer_0
  10
1467.668
  20
927.815
  0
VERTEX
  5
cb
  8
Layer_0
  10
1467.668
  20
953.21503
  0
VERTEX
  5
cc
  8
Layer_0
  10
1439.0931
  20
953.21503
  0
VERTEX
  5
cd
  8
Layer_0
  10
1439.0931
  20
884.13336
  42
0.18257306
  0
SEQEND
  0
CIRCLE
  5
cf
  8
Layer_0
  62
7
  10
1464.5417
  20
349.82425
  30
0
  40
2.5527
  0
CIRCLE
  5
cf
  8
Layer_0
  62
7
  10
1400.3838
  20
349.82419
  30
0
  40
2.5527
  0
CIRCLE
  5
cf
  8
Layer_0
  62
7
  10
1491.25
  20
387.92166
  30
0
  40
3.96875
  0
CIRCLE
  5
cf
  8
Layer_0
  62
7
  10
1424.1025
  20
464.12161
  30
0
  40
3.96875
  0
CIRCLE
  5
cf
  8
Layer_0
  62
7
  10
1438.9414
  20
398.86563
  30
0
  40
25.4
  0
POLYLINE
  5
cf
  8
Layer_0
  62
7
  70
1
  66
1
  10
0
  20
0
  30
0
  0
VERTEX
  5
cf
  8
Layer_0
  10
1527.862
  20
372.78677
  0
VERTEX
  5
d0
  8
Layer_0
  10
1437.2041
  20
475.66672
  42
0.27462233
  0
VERTEX
  5
d1
  8
Layer_0
  10
1420.2305
  20
481.14938
  42
0.27462556
  0
VERTEX
  5
d2
  8
Layer_0
  10
1407.2969
  20
468.86594
  0
VERTEX
  5
d3
  8
Layer_0
  10
1379.5674
  20
370.64133
  42
0.068891511
  0
VERTEX
  5
d4
  8
Layer_0
  10
1379.0301
  20
366.75955
  0
VERTEX
  5
d5
  8
Layer_0
  10
1379.0301
  20
294.25912
  0
VERTEX
  5
d6
  8
Layer_0
  10
1410.7801
  20
294.25912
  0
VERTEX
  5
d7
  8
Layer_0
  10
1410.7801
  20
319.65915
  42
-0.41421356
  0
VERTEX
  5
d8
  8
Layer_0
  10
1425.0676
  20
333.94662
  0
VERTEX
  5
d9
  8
Layer_0
  10
1488.5676
  20
333.94669
  42
-0.41421356
  0
VERTEX
  5
da
  8
Layer_0
  10
1502.855
  20
319.65921
  0
VERTEX
  5
db
  8
Layer_0
  10
1502.8551
  20
294.25919
  0
VERTEX
  5
dc
  8
Layer_0
  10
1531.4301
  20
294.25919
  0
VERTEX
  5
dd
  8
Layer_0
  10
1531.4301
  20
363.34085
  42
0.18257306
  0
SEQEND
  0
POLYLINE
  5
df
  8
Layer_0
  62
7
  70
1
  66
1
  10
0
  20
0
  30
0
  0
VERTEX
  5
df
  8
Layer_0
  10
1597.874
  20
214.66998
  0
VERTEX
  5
e0
  8
Layer_0
  10
1356.574
  20
214.66998
  0
VERTEX
  5
e1
  8
Layer_0
  10
1356.5739
  20
1433.8699
  0
VERTEX
  5
e2
  8
Layer_0
  10
1597.8739
  20
1433.8699
  0
SEQEND
  0
POLYLINE
  5
e4
  8
Layer_1
  62
5
  70
1
  66
1
  10
0
  20
0
  30
0
  0
VERTEX
  5
e4
  8
Layer_1
  10
1848.6981
  20
564.23376
  0
VERTEX
  5
e5
  8
Layer_1
  10
1609.5394
  20
564.23373
  0
VERTEX
  5
e6
  8
Layer_1
  10
1609.5394
  20
964.28369
  0
VERTEX
  5
e7
  8
Layer_1
  10
1848.6981
  20
964.28372
  0
SEQEND
  0
POLYLINE
  5
e9
  8
Layer_1
  62
5
  70
1
  66
1
  10
0
  20
0
  30
0
  0
VERTEX
  5
e9
  8
Layer_1
  10
1846.7141
  20
281.5126
  0
VERTEX
  5
ea
  8
Layer_1
  10
1607.5554
  20
281.51257
  0
VERTEX
  5
eb
  8
Layer_1
  10
1607.5554
  20
560.91257
  0
VERTEX
  5
ec
  8
Layer_1
  10
1846.7141
  20
560.9126
  0
SEQEND
  0
POLYLINE
  5
ee
  8
Layer_1
  62
5
  70
1
  66
1
  10
0
  20
0
  30
0
  0
VERTEX
  5
ee
  8
Layer_1
  10
1846.5567
  20
214.67001
  0
VERTEX
  5
ef
  8
Layer_1
  10
1607.398
  20
214.67001
  0
VERTEX
  5
f0
  8
Layer_1
  10
1607.398
  20
281.345
  0
VERTEX
  5
f1
  8
Layer_1
  10
1846.5567
  20
281.34502
  0
SEQEND
  0
POLYLINE
  5
f3
  8
Layer_1
  62
5
  70
1
  66
1
  10
0
  20
0
  30
0
  0
VERTEX
  5
f3
  8
Layer_1
  10
1846.9932
  20
968.09167
  0
VERTEX
  5
f4
  8
Layer_1
  10
1607.8345
  20
968.09164
  0
VERTEX
  5
f5
  8
Layer_1
  10
1607.8345
  20
1374.4916
  0
VERTEX
  5
f6
  8
Layer_1
  10
1846.9932
  20
1374.4917
  0
SEQEND
  0
POLYLINE
  5
f8
  8
Layer_1
  62
5
  70
1
  66
1
  10
0
  20
0
  30
0
  0
VERTEX
  5
f8
  8
Layer_1
  10
1356.5739
  20
281.34503
  0
VERTEX
  5
f9
  8
Layer_1
  10
1356.5739
  20
281.34503
  0
VERTEX
  5
fa
  8
Layer_1
  10
1356.5739
  20
290.86969
  0
VERTEX
  5
fb
  8
Layer_1
  10
1356.5739
  20
290.86969
  0
SEQEND
  0
POLYLINE
  5
fd
  8
Layer_1
  62
5
  70
1
  66
1
  10
0
  20
0
  30
0
  0
VERTEX
  5
fd
  8
Layer_1
  10
1356.5739
  20
273.55084
  0
VERTEX
  5
fe
  8
Layer_1
  10
1356.5739
  20
273.55084
  0
VERTEX
  5
ff
  8
Layer_1
  10
1356.5739
  20
290.86969
  0
VERTEX
  5
100
  8
Layer_1
  10
1356.5739
  20
290.86969
  0
SEQEND
  0
POLYLINE
  5
102
  8
Layer_1
  62
5
  70
1
  66
1
  10
0
  20
0
  30
0
  0
VERTEX
  5
102
  8
Layer_1
  10
1356.5739
  20
282.21027
  0
VERTEX
  5
103
  8
Layer_1
  10
1356.5739
  20
282.21027
  0
VERTEX
  5
104
  8
Layer_1
  10
1356.5739
  20
290.86969
  0
VERTEX
  5
105
  8
Layer_1
  10
1356.5739
  20
290.86969
  0
SEQEND
  0
CIRCLE
  5
107
  8
Layer_0
  62
7
  10
1540.1709
  20
437.72009
  30
0
  40
39.6875
  0
CIRCLE
  5
107
  8
Layer_0
  62
7
  10
1558.1316
  20
419.75958
  30
0
  40
2.5527
  0
CIRCLE
  5
107
  8
Layer_0
  62
7
  10
1565.571
  20
437.72009
  30
0
  40
2.5527
  0
CIRCLE
  5
107
  8
Layer_0
  62
7
  10
1540.1709
  20
437.72009
  30
0
  40
9.5249996
  0
CIRCLE
  5
107
  8
Layer_0
  62
7
  10
1575.0959
  20
437.72009
  30
0
  40
2.5527
  0
CIRCLE
  5
107
  8
Layer_0
  62
7
  10
1540.1709
  20
412.32007
  30
0
  40
2.5527
  0
CIRCLE
  5
107
  8
Layer_0
  62
7
  10
1505.2461
  20
437.72009
  30
0
  40
2.5527
  0
CIRCLE
  5
107
  8
Layer_0
  62
7
  10
1522.7085
  20
407.47415
  30
0
  40
2.5527
  0
CIRCLE
  5
107
  8
Layer_0
  62
7
  10
1557.6335
  20
407.47415
  30
0
  40
2.5527
  0
CIRCLE
  5
107
  8
Layer_0
  62
7
  10
1558.1316
  20
455.6806
  30
0
  40
2.5527
  0
CIRCLE
  5
107
  8
Layer_0
  62
7
  10
1540.1709
  20
463.12009
  30
0
  40
2.5527
  0
CIRCLE
  5
107
  8
Layer_0
  62
7
  10
1557.6335
  20
467.966
  30
0
  40
2.5527
  0
CIRCLE
  5
107
  8
Layer_0
  62
7
  10
1522.7085
  20
467.966
  30
0
  40
2.5527
  0
CIRCLE
  5
107
  8
Layer_0
  62
7
  10
1522.2104
  20
419.75958
  30
0
  40
2.5527
  0
CIRCLE
  5
107
  8
Layer_0
  62
7
  10
1522.2104
  20
455.6806
  30
0
  40
2.5527
  0
CIRCLE
  5
107
  8
Layer_0
  62
7
  10
1514.771
  20
437.72009
  30
0
  40
2.5527
  0
CIRCLE
  5
107
  8
Layer_0
  62
7
  10
1412.4412
  20
1306.7679
  30
0
  40
3.8099999
  0
CIRCLE
  5
107
  8
Layer_0
  62
7
  10
1387.2749
  20
1319.2114
  30
0
  40
2.5527
  0
CIRCLE
  5
107
  8
Layer_0
  62
7
  10
1451.4326
  20
1319.2114
  30
0
  40
2.5527
  0
POLYLINE
  5
107
  8
Layer_0
  62
7
  70
1
  66
1
  10
0
  20
0
  30
0
  0
VERTEX
  5
107
  8
Layer_0
  10
1419.6227
  20
1293.6862
  42
-0.30927138
  0
VERTEX
  5
108
  8
Layer_0
  10
1402.8535
  20
1295.3318
  0
VERTEX
  5
109
  8
Layer_0
  10
1377.7498
  20
1316.378
  0
VERTEX
  5
10a
  8
Layer_0
  10
1377.7498
  20
1374.7764
  0
VERTEX
  5
10b
  8
Layer_0
  10
1460.9577
  20
1374.7765
  0
VERTEX
  5
10c
  8
Layer_0
  10
1460.9577
  20
1316.378
  0
SEQEND
  0
ENDSEC
  0
EOF
